# xmcd CD database file
#
# Track frame offsets:
#	150
#	14789
#	32669
#	44990
#	56413
#	71085
#	85953
#	98486
#	112676
#	130091
#	148322
#	163206
#	178343
#	199407
#	218773
#	238784
#	255840
#	275353
#	296343
#
# Disc length: 4198 seconds
#
# Revision: 0
# Processed by: cddbd v1.5.2PL0 Copyright (c) Steve Scherf et al.
# Submitted via: cdripper 1,0,39,0213
#
DISCID=21106413
DTITLE=Sergio Mendes - Coffee&Bossa - The Chillout Sound of Sergio Mendes
DYEAR=1900
DGENRE=Jazz
TTITLE0=01 -  Where Is Love
TTITLE1=02 -  Waters Of March
TTITLE2=03 -  Mais Que Nada
TTITLE3=04 -  Agua De Beber
TTITLE4=06 -  Fool On The Hill
TTITLE5=05 -  Pretty World
TTITLE6=08 -  The Look Of Love [From Casino Royale]
TTITLE7=07 -  Night And Day
TTITLE8=09 -  Like A Lover
TTITLE9=10 -  Hey Look At The Sun
TTITLE10=11 -  Put A Little Love Away
TTITLE11=12 -  Scarborough Fair
TTITLE12=13 -  This Masquerade
TTITLE13=14 -  Waiting For Love
TTITLE14=15 -  Take This Love
TTITLE15=16 -  Let's Give A Little More This Time
TTITLE16=17 -  Never Gonna Let You Go
TTITLE17=18 -  What Do We Mean To Each Other
TTITLE18=19 -  Rainbow's End
EXTD=
EXTT0=
EXTT1=
EXTT2=
EXTT3=
EXTT4=
EXTT5=
EXTT6=
EXTT7=
EXTT8=
EXTT9=
EXTT10=
EXTT11=
EXTT12=
EXTT13=
EXTT14=
EXTT15=
EXTT16=
EXTT17=
EXTT18=
PLAYORDER=
